<mxfile host="app.diagrams.net" modified="2023-01-16T11:42:09.712Z" agent="5.0 (Windows NT 10.0; Win64; x64) AppleWebKit/537.36 (KHTML, like Gecko) Chrome/92.0.4515.131 Safari/537.36" etag="AQXj2tzkPQdM7JStTITb" version="20.8.0" type="github">
  <diagram name="Page-1" id="c7488fd3-1785-93aa-aadb-54a6760d102a">
    <mxGraphModel dx="841" dy="465" grid="1" gridSize="10" guides="1" tooltips="1" connect="1" arrows="1" fold="1" page="1" pageScale="1" pageWidth="1100" pageHeight="850" background="none" math="0" shadow="0">
      <root>
        <mxCell id="0" />
        <mxCell id="1" parent="0" />
        <mxCell id="OHbloAK1uQudg7SQ_7FL-7" style="edgeStyle=orthogonalEdgeStyle;rounded=0;html=1;labelBackgroundColor=none;startArrow=none;startFill=0;startSize=5;endArrow=classicThin;endFill=1;endSize=5;jettySize=auto;orthogonalLoop=1;strokeWidth=1;fontFamily=Verdana;fontSize=8" edge="1" parent="1" source="OHbloAK1uQudg7SQ_7FL-8" target="OHbloAK1uQudg7SQ_7FL-9">
          <mxGeometry relative="1" as="geometry" />
        </mxCell>
        <mxCell id="OHbloAK1uQudg7SQ_7FL-8" value="Job SAS&amp;nbsp;" style="ellipse;whiteSpace=wrap;html=1;rounded=0;shadow=0;labelBackgroundColor=none;strokeWidth=1;fontFamily=Verdana;fontSize=10;align=center;" vertex="1" parent="1">
          <mxGeometry x="100" y="120" width="60" height="60" as="geometry" />
        </mxCell>
        <mxCell id="OHbloAK1uQudg7SQ_7FL-9" value="PSAS0" style="rounded=1;whiteSpace=wrap;html=1;shadow=0;labelBackgroundColor=none;strokeWidth=1;fontFamily=Verdana;fontSize=10;align=center;" vertex="1" parent="1">
          <mxGeometry x="210" y="131.5" width="70" height="37" as="geometry" />
        </mxCell>
        <mxCell id="OHbloAK1uQudg7SQ_7FL-10" style="edgeStyle=orthogonalEdgeStyle;rounded=0;html=1;labelBackgroundColor=none;startArrow=none;startFill=0;startSize=5;endArrow=classicThin;endFill=1;endSize=5;jettySize=auto;orthogonalLoop=1;strokeWidth=1;fontFamily=Verdana;fontSize=8" edge="1" parent="1" source="OHbloAK1uQudg7SQ_7FL-11" target="OHbloAK1uQudg7SQ_7FL-12">
          <mxGeometry relative="1" as="geometry" />
        </mxCell>
        <mxCell id="OHbloAK1uQudg7SQ_7FL-11" value="" style="rounded=1;whiteSpace=wrap;html=1;shadow=0;labelBackgroundColor=none;strokeWidth=1;fontFamily=Verdana;fontSize=12;align=center;" vertex="1" parent="1">
          <mxGeometry x="410" y="135" width="70" height="37" as="geometry" />
        </mxCell>
        <mxCell id="OHbloAK1uQudg7SQ_7FL-12" value="" style="ellipse;whiteSpace=wrap;html=1;rounded=0;shadow=0;labelBackgroundColor=none;strokeWidth=2;fontFamily=Verdana;fontSize=12;align=center;" vertex="1" parent="1">
          <mxGeometry x="510" y="138.5" width="30" height="30" as="geometry" />
        </mxCell>
        <mxCell id="OHbloAK1uQudg7SQ_7FL-13" style="edgeStyle=orthogonalEdgeStyle;rounded=0;html=1;labelBackgroundColor=none;startArrow=none;startFill=0;startSize=5;endArrow=classicThin;endFill=1;endSize=5;jettySize=auto;orthogonalLoop=1;strokeWidth=1;fontFamily=Verdana;fontSize=8" edge="1" parent="1" source="OHbloAK1uQudg7SQ_7FL-9" target="OHbloAK1uQudg7SQ_7FL-16">
          <mxGeometry relative="1" as="geometry" />
        </mxCell>
        <mxCell id="OHbloAK1uQudg7SQ_7FL-14" value="No" style="edgeStyle=orthogonalEdgeStyle;rounded=0;html=1;labelBackgroundColor=none;startArrow=none;startFill=0;startSize=5;endArrow=classicThin;endFill=1;endSize=5;jettySize=auto;orthogonalLoop=1;strokeWidth=1;fontFamily=Verdana;fontSize=8" edge="1" parent="1" source="OHbloAK1uQudg7SQ_7FL-17" target="OHbloAK1uQudg7SQ_7FL-11">
          <mxGeometry x="-0.9364" y="-15" relative="1" as="geometry">
            <mxPoint as="offset" />
          </mxGeometry>
        </mxCell>
        <mxCell id="OHbloAK1uQudg7SQ_7FL-15" style="edgeStyle=orthogonalEdgeStyle;rounded=0;html=1;labelBackgroundColor=none;startArrow=none;startFill=0;startSize=5;endArrow=classicThin;endFill=1;endSize=5;jettySize=auto;orthogonalLoop=1;strokeWidth=1;fontFamily=Verdana;fontSize=8" edge="1" parent="1" source="OHbloAK1uQudg7SQ_7FL-16" target="OHbloAK1uQudg7SQ_7FL-17">
          <mxGeometry relative="1" as="geometry" />
        </mxCell>
        <mxCell id="OHbloAK1uQudg7SQ_7FL-16" value="Bucket S3" style="rounded=1;whiteSpace=wrap;html=1;shadow=0;labelBackgroundColor=none;strokeWidth=1;fontFamily=Verdana;fontSize=12;align=center;" vertex="1" parent="1">
          <mxGeometry x="300" y="280" width="70" height="35.5" as="geometry" />
        </mxCell>
        <mxCell id="OHbloAK1uQudg7SQ_7FL-17" value="" style="strokeWidth=1;html=1;shape=mxgraph.flowchart.decision;whiteSpace=wrap;rounded=1;shadow=0;labelBackgroundColor=none;fontFamily=Verdana;fontSize=12;align=center;" vertex="1" parent="1">
          <mxGeometry x="430" y="281.9999999999999" width="30" height="30" as="geometry" />
        </mxCell>
        <mxCell id="OHbloAK1uQudg7SQ_7FL-18" value="&lt;h1&gt;Venerdem&lt;/h1&gt;" style="text;html=1;align=center;verticalAlign=middle;resizable=0;points=[];autosize=1;strokeColor=none;fillColor=none;fontSize=10;fontFamily=Verdana;" vertex="1" parent="1">
          <mxGeometry x="40" y="10" width="140" height="60" as="geometry" />
        </mxCell>
      </root>
    </mxGraphModel>
  </diagram>
</mxfile>
